<svg width="21" height="21" viewBox="0 0 21 21" fill="none" xmlns="http://www.w3.org/2000/svg">
<path d="M10.44 1.95703C8.76234 1.95703 7.12234 2.45452 5.7274 3.38659C4.33246 4.31866 3.24524 5.64344 2.60322 7.19342C1.96119 8.74339 1.79321 10.4489 2.12051 12.0944C2.44781 13.7398 3.25569 15.2513 4.44199 16.4376C5.62829 17.6239 7.13973 18.4317 8.78517 18.759C10.4306 19.0863 12.1362 18.9184 13.6861 18.2763C15.2361 17.6343 16.5609 16.5471 17.493 15.1522C18.425 13.7572 18.9225 12.1172 18.9225 10.4395C18.9201 8.19056 18.0257 6.03438 16.4354 4.44412C14.8452 2.85386 12.689 1.95941 10.44 1.95703ZM11.0925 17.5869V12.397H13.05C13.2231 12.397 13.389 12.3283 13.5114 12.2059C13.6338 12.0836 13.7025 11.9176 13.7025 11.7445C13.7025 11.5715 13.6338 11.4055 13.5114 11.2831C13.389 11.1608 13.2231 11.092 13.05 11.092H11.0925V9.13453C11.0925 8.78842 11.23 8.45649 11.4747 8.21176C11.7195 7.96702 12.0514 7.82953 12.3975 7.82953H13.7025C13.8756 7.82953 14.0415 7.76079 14.1639 7.63842C14.2863 7.51605 14.355 7.35009 14.355 7.17703C14.355 7.00398 14.2863 6.83801 14.1639 6.71564C14.0415 6.59328 13.8756 6.52453 13.7025 6.52453H12.3975C11.7053 6.52453 11.0414 6.79951 10.552 7.28898C10.0625 7.77845 9.78752 8.44232 9.78752 9.13453V11.092H7.83002C7.65697 11.092 7.491 11.1608 7.36864 11.2831C7.24627 11.4055 7.17752 11.5715 7.17752 11.7445C7.17752 11.9176 7.24627 12.0836 7.36864 12.2059C7.491 12.3283 7.65697 12.397 7.83002 12.397H9.78752V17.5869C7.94812 17.4189 6.24426 16.5484 5.03034 15.1563C3.81642 13.7641 3.18591 11.9576 3.26996 10.1125C3.354 8.26735 4.14613 6.52564 5.48158 5.24963C6.81702 3.97363 8.59297 3.26157 10.44 3.26157C12.2871 3.26157 14.063 3.97363 15.3985 5.24963C16.7339 6.52564 17.526 8.26735 17.6101 10.1125C17.6941 11.9576 17.0636 13.7641 15.8497 15.1563C14.6358 16.5484 12.9319 17.4189 11.0925 17.5869Z" fill="black"/>
</svg>
