<svg width="21" height="21" viewBox="0 0 21 21" fill="none" xmlns="http://www.w3.org/2000/svg">
<path d="M10.44 6.52453C9.66571 6.52453 8.90878 6.75414 8.26496 7.18433C7.62114 7.61451 7.11935 8.22595 6.82303 8.94133C6.52671 9.6567 6.44918 10.4439 6.60025 11.2033C6.75131 11.9627 7.12417 12.6603 7.6717 13.2079C8.21922 13.7554 8.91681 14.1282 9.67624 14.2793C10.4357 14.4304 11.2229 14.3528 11.9382 14.0565C12.6536 13.7602 13.265 13.2584 13.6952 12.6146C14.1254 11.9708 14.355 11.2138 14.355 10.4395C14.3539 9.40154 13.9411 8.40637 13.2072 7.6724C12.4732 6.93843 11.478 6.52561 10.44 6.52453ZM10.44 13.0495C9.92381 13.0495 9.41919 12.8965 8.98998 12.6097C8.56077 12.3229 8.22624 11.9152 8.02869 11.4383C7.83115 10.9614 7.77946 10.4366 7.88017 9.93035C7.98088 9.42406 8.22946 8.959 8.59447 8.59398C8.95949 8.22897 9.42454 7.98039 9.93083 7.87968C10.4371 7.77897 10.9619 7.83066 11.4388 8.02821C11.9157 8.22575 12.3234 8.56028 12.6102 8.98949C12.8969 9.41871 13.05 9.92332 13.05 10.4395C13.05 11.1317 12.775 11.7956 12.2856 12.2851C11.7961 12.7745 11.1322 13.0495 10.44 13.0495ZM14.355 1.95703H6.52502C5.31404 1.95833 4.15303 2.43996 3.29674 3.29625C2.44045 4.15254 1.95881 5.31355 1.95752 6.52453V14.3545C1.95881 15.5655 2.44045 16.7265 3.29674 17.5828C4.15303 18.4391 5.31404 18.9207 6.52502 18.922H14.355C15.566 18.9207 16.727 18.4391 17.5833 17.5828C18.4396 16.7265 18.9212 15.5655 18.9225 14.3545V6.52453C18.9212 5.31355 18.4396 4.15254 17.5833 3.29625C16.727 2.43996 15.566 1.95833 14.355 1.95703ZM17.6175 14.3545C17.6175 15.2198 17.2738 16.0496 16.662 16.6615C16.0501 17.2733 15.2203 17.617 14.355 17.617H6.52502C5.65975 17.617 4.82992 17.2733 4.21808 16.6615C3.60625 16.0496 3.26252 15.2198 3.26252 14.3545V6.52453C3.26252 5.65926 3.60625 4.82943 4.21808 4.2176C4.82992 3.60576 5.65975 3.26203 6.52502 3.26203H14.355C15.2203 3.26203 16.0501 3.60576 16.662 4.2176C17.2738 4.82943 17.6175 5.65926 17.6175 6.52453V14.3545ZM15.66 6.19828C15.66 6.39186 15.6026 6.58109 15.4951 6.74205C15.3875 6.903 15.2347 7.02845 15.0558 7.10253C14.877 7.17661 14.6802 7.19599 14.4903 7.15823C14.3005 7.12046 14.1261 7.02724 13.9892 6.89036C13.8523 6.75348 13.7591 6.57909 13.7213 6.38923C13.6836 6.19937 13.7029 6.00257 13.777 5.82373C13.8511 5.64489 13.9766 5.49203 14.1375 5.38448C14.2985 5.27693 14.4877 5.21953 14.6813 5.21953C14.9409 5.21953 15.1898 5.32265 15.3734 5.5062C15.5569 5.68975 15.66 5.9387 15.66 6.19828Z" fill="black"/>
</svg>
