<svg width="21" height="21" viewBox="0 0 21 21" fill="none" xmlns="http://www.w3.org/2000/svg">
<path d="M17.6175 1.95703H3.26252C2.91641 1.95703 2.58448 2.09452 2.33975 2.33926C2.09501 2.58399 1.95752 2.91592 1.95752 3.26203V17.617C1.95752 17.9631 2.09501 18.2951 2.33975 18.5398C2.58448 18.7845 2.91641 18.922 3.26252 18.922H17.6175C17.9636 18.922 18.2956 18.7845 18.5403 18.5398C18.785 18.2951 18.9225 17.9631 18.9225 17.617V3.26203C18.9225 2.91592 18.785 2.58399 18.5403 2.33926C18.2956 2.09452 17.9636 1.95703 17.6175 1.95703ZM17.6175 17.617H3.26252V3.26203H17.6175V17.617ZM7.83002 9.13453V14.3545C7.83002 14.5276 7.76127 14.6936 7.63891 14.8159C7.51654 14.9383 7.35057 15.007 7.17752 15.007C7.00447 15.007 6.8385 14.9383 6.71613 14.8159C6.59377 14.6936 6.52502 14.5276 6.52502 14.3545V9.13453C6.52502 8.96148 6.59377 8.79551 6.71613 8.67314C6.8385 8.55078 7.00447 8.48203 7.17752 8.48203C7.35057 8.48203 7.51654 8.55078 7.63891 8.67314C7.76127 8.79551 7.83002 8.96148 7.83002 9.13453ZM15.0075 11.4183V14.3545C15.0075 14.5276 14.9388 14.6936 14.8164 14.8159C14.694 14.9383 14.5281 15.007 14.355 15.007C14.182 15.007 14.016 14.9383 13.8936 14.8159C13.7713 14.6936 13.7025 14.5276 13.7025 14.3545V11.4183C13.7025 10.9856 13.5307 10.5707 13.2247 10.2648C12.9188 9.95889 12.5039 9.78703 12.0713 9.78703C11.6386 9.78703 11.2237 9.95889 10.9178 10.2648C10.6119 10.5707 10.44 10.9856 10.44 11.4183V14.3545C10.44 14.5276 10.3713 14.6936 10.2489 14.8159C10.1265 14.9383 9.96057 15.007 9.78752 15.007C9.61447 15.007 9.4485 14.9383 9.32613 14.8159C9.20377 14.6936 9.13502 14.5276 9.13502 14.3545V9.13453C9.13583 8.97471 9.19527 8.82074 9.30207 8.70183C9.40887 8.58292 9.5556 8.50735 9.71442 8.48944C9.87324 8.47154 10.0331 8.51255 10.1637 8.6047C10.2943 8.69684 10.3865 8.83372 10.4229 8.98935C10.8643 8.68991 11.3789 8.51637 11.9115 8.48735C12.4441 8.45833 12.9746 8.57494 13.4459 8.82464C13.9172 9.07435 14.3116 9.44773 14.5868 9.90468C14.8619 10.3616 15.0073 10.8849 15.0075 11.4183ZM8.15627 6.85078C8.15627 7.04436 8.09887 7.23359 7.99132 7.39455C7.88377 7.5555 7.73091 7.68095 7.55207 7.75503C7.37323 7.82911 7.17643 7.84849 6.98657 7.81073C6.79672 7.77296 6.62232 7.67974 6.48544 7.54286C6.34856 7.40598 6.25534 7.23159 6.21758 7.04173C6.17981 6.85187 6.19919 6.65507 6.27327 6.47623C6.34735 6.29739 6.4728 6.14453 6.63376 6.03698C6.79471 5.92943 6.98394 5.87203 7.17752 5.87203C7.4371 5.87203 7.68605 5.97515 7.8696 6.1587C8.05315 6.34225 8.15627 6.5912 8.15627 6.85078Z" fill="black"/>
</svg>
